<?xml version="1.0" standalone="no"?>
<!DOCTYPE svg PUBLIC "-//W3C//DTD SVG 20010904//EN"
 "http://www.w3.org/TR/2001/REC-SVG-20010904/DTD/svg10.dtd">
<svg version="1.0" xmlns="http://www.w3.org/2000/svg"
 width="400.000000pt" height="400.000000pt" viewBox="0 0 400.000000 400.000000"
 preserveAspectRatio="xMidYMid meet">

<g transform="translate(0.000000,400.000000) scale(0.100000,-0.100000)"
fill="#000000" stroke="none">
<path d="M260 2000 l0 -2000 1740 0 1740 0 0 2000 0 2000 -1740 0 -1740 0 0
-2000z m1954 849 c6 -5 1 -17 -12 -29 -20 -19 -22 -30 -22 -152 l0 -131 203 7
c111 3 212 9 225 12 21 6 22 4 22 -76 0 -80 -1 -82 -22 -76 -13 3 -114 9 -225
12 l-203 7 0 -113 0 -113 168 7 c92 4 177 10 190 13 21 5 22 3 22 -71 l0 -76
-170 6 c-93 4 -170 4 -170 0 0 -15 45 -94 86 -152 82 -116 202 -203 342 -249
28 -9 52 -18 52 -20 0 -1 -18 -22 -40 -46 -21 -24 -45 -57 -51 -74 -7 -16 -14
-32 -15 -34 -6 -7 -111 59 -169 106 -82 66 -148 151 -201 258 l-45 90 3 -307
4 -308 -73 0 -73 0 0 308 0 307 -46 -84 c-72 -135 -188 -284 -291 -375 l-42
-37 -41 30 c-23 16 -57 35 -76 41 -19 6 -34 15 -34 18 1 4 33 32 72 62 94 72
234 210 287 282 49 68 111 169 111 182 0 5 -64 6 -150 2 l-151 -8 3 74 c3 66
5 73 23 71 11 -1 91 -5 178 -9 l157 -7 0 113 0 113 -177 -7 c-98 -4 -188 -10
-200 -13 -22 -5 -23 -3 -23 77 0 65 3 81 14 77 7 -3 98 -9 201 -13 l187 -7 -4
165 -3 164 85 -4 c47 -2 89 -8 94 -13z m-710 -114 c146 -103 137 -84 76 -160
l-53 -66 -51 49 c-28 28 -77 68 -108 89 l-57 40 47 56 c26 31 49 57 51 57 2 0
44 -29 95 -65z m-106 -402 c62 -36 112 -71 112 -76 0 -16 -71 -127 -81 -127
-5 0 -33 18 -62 39 -29 22 -83 56 -120 76 l-68 37 24 32 c13 17 32 43 43 58
10 15 24 28 30 28 6 0 61 -30 122 -67z m128 -405 c13 -6 24 -14 24 -18 0 -3
-21 -57 -46 -120 -26 -63 -68 -177 -95 -254 -26 -76 -50 -141 -53 -144 -3 -2
-20 6 -38 20 -18 14 -54 37 -80 52 l-46 27 45 77 c60 101 145 279 173 365 l22
67 35 -31 c20 -17 46 -35 59 -41z"/>
</g>
</svg>
